<svg width="80" height="80" viewBox="0 0 80 80" fill="none" xmlns="http://www.w3.org/2000/svg">
<path d="M25.2886 46.3781L25.2652 49.4623L21.9279 50.0511L21.8686 59.3695L17.9285 60.0644L17.9879 50.746L14.6865 51.3285L14.7099 48.2442L25.2886 46.3781Z" fill="white"/>
<path d="M30.7139 48.502L30.7107 50.0417L34.6149 49.3531L34.5821 52.2812L30.6764 52.9699L30.6733 54.7205L35.1115 53.9381L35.0912 57.038L26.7129 58.5153L26.7956 46.1142L35.1739 44.6368L35.1505 47.7196L30.7139 48.502Z" fill="white"/>
<path d="M45.103 53.3993L40.9146 54.1379L40.2759 56.1228L36.1406 56.8521L40.8209 43.6405L45.3653 42.8394L49.8629 54.4331L45.7089 55.1655L45.103 53.3993ZM44.1597 50.6445L43.0556 47.3931L41.8875 51.0459L44.1597 50.6445Z" fill="white"/>
<path d="M66.3811 39.1335L66.2983 51.5347L62.3754 52.2265L62.416 46.0251L60.4405 52.5669L57.0673 53.1619L55.1777 47.3198L55.1324 53.5039L51.1924 54.1989L51.2751 41.7977L56.1038 40.9466L58.8273 47.8851L61.5696 39.9831L66.3811 39.1335Z" fill="white"/>
<path d="M26.0352 61.8854C27.0768 62.4773 27.7062 63.394 27.9264 64.6355C27.9888 64.9853 28.0138 65.3117 28.0045 65.6146C27.992 66.7015 27.6765 67.7088 27.0612 68.638C26.4459 69.5672 25.573 70.3121 24.4439 70.8727L27.942 76.376L22.3528 77.3614L19.3092 72.1611L19.2826 77.9018L14.1963 78.7982L14.3025 62.7912L21.8625 61.4575C23.6037 61.1514 24.9951 61.2935 26.0352 61.8854ZM19.3326 68.8145L21.3487 68.4584C22.3419 68.2835 22.8369 67.7447 22.8354 66.8421C22.8369 66.7671 22.8291 66.6703 22.8088 66.5532C22.7526 66.2315 22.6042 65.9988 22.3669 65.852C22.1279 65.7052 21.8031 65.6693 21.3908 65.7411L19.3747 66.0972L19.3326 68.8145Z" fill="white"/>
<path d="M35.28 63.0675L35.2754 65.0555L40.3164 64.1669L40.2742 67.9461L35.2332 68.8347L35.2301 71.0929L40.9582 70.0825L40.9317 74.085L30.1172 75.9918L30.2234 59.9848L41.0379 58.078L41.0066 62.0587L35.28 63.0675Z" fill="white"/>
<path d="M57.6029 67.2153C56.9095 68.5567 55.9257 69.6905 54.6467 70.6166C53.3693 71.5426 51.8826 72.1548 50.1866 72.4531L43.4277 73.6446L43.5339 57.6376L50.2928 56.4461C51.7889 56.1822 53.1178 56.215 54.2781 56.5445C55.4384 56.874 56.3833 57.4534 57.1125 58.281C57.8403 59.1087 58.3119 60.1285 58.5259 61.3403C58.6102 61.8213 58.657 62.3492 58.6633 62.9192C58.6508 64.4418 58.2963 65.8738 57.6029 67.2153ZM52.4838 66.65C53.1647 65.9128 53.5067 64.9712 53.5098 63.8265C53.5036 63.4361 53.4864 63.1534 53.4552 62.9785C53.3052 62.1321 52.9086 61.5324 52.2636 61.1795C51.6186 60.8265 50.8003 60.7375 49.8071 60.9124L48.5921 61.1264L48.5297 68.2741L49.7447 68.0601C50.8893 67.8571 51.8029 67.3886 52.4838 66.65Z" fill="white"/>
<path d="M69.0589 29.9699C69.0589 29.9699 69.4103 13.1383 56.2549 6.68553C56.0925 4.97552 54.2997 3.07498 54.2997 3.07498C54.2997 3.07498 35.2319 -1.39917 24.1472 12.954C19.2795 19.2569 16.1906 32.0609 16.1906 32.0609C16.1906 32.0609 8.1324 36.1915 9.44419 39.9645C10.8419 43.9857 24.4408 45.9831 28.3309 46.8529C38.0226 49.0221 51.2935 38.5512 63.1809 37.1348C71.6294 36.129 71.9418 32.456 69.0589 29.9699Z" fill="#FF414C"/>
<path d="M32.838 48.2803C31.1936 48.4364 29.5991 48.3802 28.0656 48.0366C27.5065 47.9117 26.7194 47.7587 25.8074 47.5806C17.6665 45.9956 9.60992 44.1325 8.29968 40.3627C6.85515 36.2055 13.1674 32.3389 15.146 31.2457C15.7972 28.708 18.7331 17.9825 23.1885 12.2138C27.9266 6.07801 34.8635 2.34877 43.248 1.42739C49.5368 0.737139 54.3733 1.84748 54.5763 1.89433L54.9308 1.9771L55.1807 2.24258C55.3696 2.44247 56.8626 4.06816 57.3342 5.87499C62.7391 8.71877 66.6776 13.7239 68.7468 20.389C70.0289 24.5212 70.2366 28.0974 70.2663 29.4389C71.6686 30.8319 72.2105 32.4482 71.7545 33.9411C71.2642 35.5481 69.4027 37.6157 63.3232 38.3387C58.3555 38.9306 53.0209 41.2091 47.8612 43.4126C42.5718 45.6692 37.4996 47.8352 32.838 48.2803ZM43.9945 3.78706C43.8087 3.80424 43.6228 3.82454 43.4339 3.84484C35.6443 4.71937 29.4789 8.03321 25.1063 13.6942C20.4556 19.716 17.3995 32.2202 17.3682 32.3451L17.2371 32.8854L16.742 33.1384C16.7233 33.1478 14.7931 34.1457 13.0627 35.559C11.9368 36.4773 10.119 38.2201 10.5875 39.5662C10.7609 40.0644 11.6869 41.3887 16.5437 42.916C19.8091 43.9435 23.543 44.6697 26.2697 45.2007C27.1989 45.3818 28.0016 45.538 28.5934 45.6707C33.7141 46.817 40.1232 44.0794 46.9086 41.1825C52.226 38.9119 57.723 36.5647 63.0358 35.9322C68.4032 35.292 69.2918 33.7037 69.4355 33.2321C69.6385 32.57 69.2012 31.6939 68.2658 30.8881L67.8332 30.5164L67.8457 29.9464C67.8488 29.7246 67.9847 13.7926 55.7194 7.77397L55.112 7.47569L55.0479 6.80106C54.9698 5.98587 54.2327 4.86773 53.6596 4.1806C52.4993 3.95728 48.6842 3.34042 43.9945 3.78706Z" fill="#B70042"/>
<path d="M30.9281 20.6733L28.292 19.4942L28.7152 18.4183C28.7761 18.2621 30.2675 14.5422 34.1654 10.6381C37.7463 7.05094 44.135 2.61739 54.2077 1.8678L54.3873 4.28368C47.2005 4.82089 41.171 7.33985 36.4673 11.7796C40.9555 8.54545 47.5832 5.3784 56.266 5.47523L56.2394 7.89892C40.3308 7.72245 31.5886 19.7457 31.5028 19.8659L30.9281 20.6733Z" fill="#B70042"/>
<path d="M42.3184 38.5635C37.8021 38.9946 32.7345 39.0274 27.6638 38.3043C18.2595 36.9644 15.3204 32.9291 15.2002 32.7589L17.1819 31.3627L16.1919 32.0608L17.1741 31.3518C17.1991 31.3862 19.7602 34.7312 28.0058 35.9056C39.1701 37.4969 50.261 35.2934 54.9928 33.4226L55.883 35.676C53.0782 36.7848 48.159 38.006 42.3184 38.5635Z" fill="#B70042"/>
<path d="M64.9269 32.8027L64.1133 30.5195C67.132 29.4451 67.7879 27.6008 67.8144 27.5227L70.1288 28.2411C70.0913 28.366 69.1637 31.2925 64.9269 32.8027Z" fill="#B70042"/>
</svg>
