<svg width="80" height="80" viewBox="0 0 80 80" fill="none" xmlns="http://www.w3.org/2000/svg">
<path d="M23.8199 48.7192L23.7964 51.8035L20.4592 52.3922L20.3998 61.7106L16.4598 62.4056L16.5191 53.0871L13.2178 53.6696L13.2412 50.5854L23.8199 48.7192Z" fill="white"/>
<path d="M29.2451 50.8415L29.242 52.3813L33.1461 51.6926L33.1133 54.6208L29.2076 55.3095L29.2045 57.0601L33.6427 56.2777L33.6224 59.3776L25.2441 60.8549L25.3269 48.4538L33.7052 46.9764L33.6818 50.0591L29.2451 50.8415Z" fill="white"/>
<path d="M43.6344 55.7404L39.4444 56.4791L38.8057 58.4639L34.6704 59.1932L39.3507 45.98L43.8951 45.1789L48.3912 56.7727L44.2371 57.5051L43.6344 55.7404ZM42.6911 52.9841L41.587 49.7327L40.4189 53.3854L42.6911 52.9841Z" fill="white"/>
<path d="M64.9118 41.4731L64.8291 53.8742L60.9062 54.566L60.9468 48.3647L58.9713 54.9065L55.5981 55.5015L53.7085 49.6593L53.6632 55.8435L49.7231 56.5384L49.8059 44.1373L54.6346 43.2862L57.3581 50.2246L60.1019 42.3226L64.9118 41.4731Z" fill="white"/>
<path d="M23.275 64.0001C24.0964 64.2281 24.7554 64.6295 25.252 65.1995C25.7486 65.771 26.0875 66.4597 26.2671 67.2687L22.1131 68.0011C21.9647 67.7825 21.7492 67.631 21.465 67.5466C21.1824 67.4623 20.8388 67.4561 20.4359 67.5263C19.6785 67.6606 19.0897 68.0058 18.6696 68.5633C18.2495 69.1224 18.034 69.822 18.0247 70.6637C18.0216 70.9917 18.0403 71.2681 18.0793 71.4945C18.1964 72.1629 18.4807 72.6252 18.9289 72.8844C19.3771 73.1436 20.0095 73.2014 20.8263 73.0577C21.7367 72.8969 22.4738 72.4065 23.0376 71.5835L19.8955 72.1379L19.9221 69.3863L26.3296 68.2572L26.3015 72.1457C25.2755 74.5663 23.3015 76.0343 20.3796 76.5496C19.2552 76.7479 18.2527 76.7151 17.3703 76.4512C16.488 76.1873 15.7681 75.7219 15.2121 75.0551C14.6562 74.3898 14.2907 73.5637 14.1174 72.5799C14.0362 72.1161 13.9972 71.6569 14.0018 71.2009C14.0112 70.0094 14.2767 68.9037 14.7983 67.884C15.3199 66.8642 16.0663 66.01 17.0361 65.3197C18.0059 64.6295 19.1366 64.1703 20.4265 63.9439C21.504 63.7518 22.4535 63.7721 23.275 64.0001Z" fill="white"/>
<path d="M37.3143 61.9871C38.1217 62.4462 38.6089 63.1552 38.7791 64.1172C38.8275 64.3889 38.8478 64.6419 38.84 64.8762C38.8291 65.7179 38.5855 66.4987 38.1092 67.2186C37.6328 67.9386 36.9567 68.5148 36.0806 68.949L38.7901 73.2123L34.4596 73.9759L32.1015 69.9484L32.0812 74.396L28.1411 75.091L28.2239 62.6883L34.0816 61.656C35.4293 61.4186 36.5069 61.5295 37.3143 61.9871ZM32.1202 67.3561L33.6819 67.0812C34.4502 66.9454 34.8344 66.5284 34.8344 65.8288C34.8359 65.771 34.8297 65.696 34.8141 65.6055C34.7704 65.3572 34.6564 65.176 34.4705 65.062C34.2862 64.9496 34.0332 64.9199 33.7147 64.9761L32.153 65.251L32.1202 67.3561Z" fill="white"/>
<path d="M44.476 62.9038L44.4729 64.4436L48.3771 63.7549L48.3443 66.683L44.4386 67.3717L44.4354 69.1223L48.8737 68.3399L48.8534 71.4398L40.4751 72.9171L40.5579 60.5144L48.9361 59.0371L48.9127 62.1214L44.476 62.9038Z" fill="white"/>
<path d="M54.789 61.0844L54.7859 62.6242L58.6901 61.9355L58.6573 64.8637L54.7516 65.5523L54.7484 67.303L59.1866 66.5206L59.1664 69.6205L50.7881 71.0978L50.8708 58.6951L59.2491 57.2178L59.2257 60.302L54.789 61.0844Z" fill="white"/>
<path d="M73.1544 67.1546L69.2143 67.8496L65.079 62.351L65.0431 68.5851L61.103 69.2801L61.1858 56.8774L65.1259 56.1824L69.2627 61.7872L69.297 55.4469L73.2371 54.752L73.1544 67.1546Z" fill="white"/>
<path d="M67.7352 32.0907C67.7352 32.0907 68.0866 15.2592 54.9312 8.80638C54.7688 7.09637 52.976 5.19583 52.976 5.19583C52.976 5.19583 33.9082 0.721677 22.8235 15.0749C17.9558 21.3777 14.8669 34.1818 14.8669 34.1818C14.8669 34.1818 6.80867 38.3124 8.12046 42.0853C9.51815 46.1066 23.1171 48.104 27.0072 48.9738C36.6988 51.1429 49.9698 40.672 61.8571 39.2556C70.3057 38.2499 70.618 34.5769 67.7352 32.0907Z" fill="#00DB90"/>
<path d="M31.5143 50.4012C29.8698 50.5573 28.2754 50.5011 26.7418 50.1576C26.1828 50.0326 25.3957 49.8796 24.4837 49.7016C16.3428 48.1165 8.28619 46.2534 6.97595 42.4836C5.53142 38.3264 11.8436 34.4598 13.8222 33.3666C14.4735 30.8289 17.4094 20.1034 21.8648 14.3347C26.6029 8.19892 33.5398 4.46968 41.9243 3.5483C48.2131 2.85805 53.0495 3.96839 53.2525 4.01524L53.607 4.09801L53.8569 4.36349C54.0459 4.56338 55.5388 6.18907 56.0105 7.99591C61.4154 10.8397 65.3538 15.8448 67.423 22.51C68.7052 26.6421 68.9129 30.2183 68.9426 31.5598C70.3449 32.9528 70.8868 34.5691 70.4308 36.062C69.9404 37.669 68.0789 39.7366 61.9994 40.4597C57.0318 41.0515 51.6971 43.33 46.5374 45.5335C41.2481 47.7901 36.1758 49.9561 31.5143 50.4012ZM42.6708 5.90797C42.4849 5.92515 42.2991 5.94545 42.1101 5.96575C34.3206 6.84028 28.1551 10.1541 23.7825 15.8151C19.1319 21.8369 16.0757 34.3411 16.0445 34.466L15.9133 35.0063L15.4183 35.2593C15.3995 35.2687 13.4693 36.2666 11.739 37.6799C10.6131 38.5982 8.79527 40.341 9.26377 41.6871C9.43711 42.1853 10.3632 43.5096 15.22 45.0369C18.4854 46.0644 22.2193 46.7906 24.9459 47.3216C25.8751 47.5027 26.6778 47.6589 27.2697 47.7916C32.3904 48.9379 38.7994 46.2003 45.5848 43.3034C50.9023 41.0328 56.3993 38.6856 61.7121 38.0531C67.0811 37.4129 67.9681 35.8247 68.1118 35.353C68.3148 34.6909 67.8775 33.8148 66.9421 33.009L66.5095 32.6373L66.522 32.0673C66.5251 31.8456 66.661 15.9135 54.3957 9.89488L53.7882 9.59661L53.7242 8.92197C53.6461 8.10678 52.909 6.98864 52.3359 6.30151C51.1756 6.07819 47.3604 5.46133 42.6708 5.90797Z" fill="#006B3F"/>
<path d="M29.6043 22.7942L26.9683 21.6151L27.3915 20.5392C27.4524 20.383 28.9437 16.6631 32.8416 12.759C36.421 9.17185 42.8113 4.7383 52.884 3.98871L53.0636 6.40459C45.8768 6.9418 39.8472 9.46076 35.1435 13.9006C39.6317 10.6664 46.2594 7.49932 54.9422 7.59614L54.9157 10.0198C39.0071 9.84336 30.2649 21.8666 30.179 21.9868L29.6043 22.7942Z" fill="#006B3F"/>
<path d="M40.9937 40.6845C36.4774 41.1155 31.4098 41.1483 26.3391 40.4253C16.9348 39.0854 13.9957 35.0501 13.8755 34.8798L15.8572 33.4837L14.8672 34.1818L15.8494 33.4728C15.8744 33.5071 18.4355 36.8522 26.6811 38.0266C37.8454 39.6179 48.9363 37.4144 53.6681 35.5435L54.5583 37.797C51.7551 38.9058 46.8358 40.127 40.9937 40.6845Z" fill="#006B3F"/>
<path d="M63.6032 34.9236L62.7896 32.6405C65.8082 31.5661 66.4641 29.7218 66.4907 29.6437L68.8051 30.362C68.7676 30.487 67.8399 33.4135 63.6032 34.9236Z" fill="#006B3F"/>
</svg>
