<svg width="80" height="80" viewBox="0 0 80 80" fill="none" xmlns="http://www.w3.org/2000/svg">
<path d="M24.9927 46.738L24.9693 49.8223L21.632 50.4111L21.5727 59.7295L17.6326 60.4244L17.692 51.106L14.3906 51.6885L14.4141 48.6042L24.9927 46.738Z" fill="white"/>
<path d="M30.418 48.8618L30.4148 50.4016L34.319 49.7129L34.2862 52.641L30.3805 53.3297L30.3774 55.0803L34.8156 54.2979L34.7953 57.3978L26.417 58.8751L26.4998 46.4724L34.8781 44.9951L34.8546 48.0778L30.418 48.8618Z" fill="white"/>
<path d="M44.8071 53.7592L40.6187 54.4978L39.98 56.4827L35.8447 57.212L40.525 44.0004L45.0694 43.1992L49.5655 54.793L45.4114 55.5254L44.8071 53.7592ZM43.8638 51.0044L42.7598 47.753L41.5916 51.4057L43.8638 51.0044Z" fill="white"/>
<path d="M66.0842 39.4935L66.0014 51.8947L62.0785 52.5865L62.1191 46.3851L60.1436 52.9269L56.7705 53.5219L54.8809 47.6797L54.8356 53.8639L50.8955 54.5588L50.9783 42.1577L55.8069 41.3066L58.5305 48.2451L61.2727 40.3431L66.0842 39.4935Z" fill="white"/>
<path d="M27.5696 67.5924C27.0683 68.3217 26.4077 68.8621 25.5879 69.2181C26.4155 69.2681 27.0902 69.5258 27.6133 69.9896C28.1365 70.455 28.4613 71.0453 28.5878 71.7605C28.6284 71.9948 28.6487 72.2384 28.6471 72.496C28.6268 73.9 28.1474 75.065 27.2073 75.991C26.2687 76.9171 24.9195 77.5355 23.1642 77.8447L14.6641 79.3439L14.7703 63.3369L23.0408 61.8783C24.5228 61.6175 25.719 61.6847 26.6311 62.0798C27.5431 62.4764 28.0928 63.1995 28.277 64.2505C28.3083 64.4254 28.3255 64.708 28.3317 65.0985C28.3255 66.0339 28.0709 66.8647 27.5696 67.5924ZM23.4281 72.3774C23.3297 71.823 22.8924 71.6137 22.1132 71.7511L19.7988 72.1587L19.7723 74.4216L22.0866 74.014C22.5598 73.9312 22.9081 73.7828 23.1298 73.5705C23.3516 73.3581 23.4609 73.0567 23.4546 72.6663C23.4578 72.5897 23.4484 72.4929 23.4281 72.3774ZM23.1314 66.6711C23.0361 66.1307 22.591 65.9308 21.7977 66.0714L19.8269 66.4181L19.8238 68.6762L21.7946 68.3295C22.2522 68.2483 22.5926 68.0984 22.8144 67.8782C23.0361 67.658 23.1439 67.3613 23.1407 66.9849C23.1439 66.8335 23.1407 66.7288 23.1314 66.6711Z" fill="white"/>
<path d="M36.0086 71.7839L40.9122 70.9187L40.8966 74.7151L30.9082 76.4766L31.0144 60.4696L36.1007 59.5732L36.0086 71.7839Z" fill="white"/>
<path d="M48.1745 57.4447L48.112 66.4664C48.1073 66.7084 48.1276 66.9536 48.1713 67.2019C48.2588 67.6985 48.4649 68.0639 48.7897 68.3013C49.1146 68.5371 49.5753 68.6027 50.1702 68.4981C50.9042 68.3685 51.4477 68.0577 51.8022 67.5673C52.1567 67.0754 52.3394 66.4601 52.3503 65.7199L52.4128 56.6982L57.4757 55.8049L57.4132 64.8266C57.3992 66.3492 57.0634 67.7079 56.4075 68.8994C55.7516 70.091 54.8662 71.0576 53.7527 71.7947C52.6392 72.5334 51.3946 73.0238 50.0203 73.2658C48.2026 73.586 46.6831 73.3876 45.4619 72.6693C44.2406 71.9509 43.4801 70.7453 43.1818 69.0509C43.0834 68.4965 43.0397 67.9312 43.0491 67.3581L43.1116 58.3364L48.1745 57.4447Z" fill="white"/>
<path d="M65.2804 58.402L65.2773 60.39L70.3183 59.5014L70.2762 63.2806L65.2351 64.1692L65.232 66.4273L70.9602 65.4169L70.9336 69.4195L60.1191 71.3263L60.2253 55.3193L71.0398 53.4125L71.0086 57.3931L65.2804 58.402Z" fill="white"/>
<path d="M69.0589 29.424C69.0589 29.424 69.4103 12.5924 56.2549 6.13963C56.0925 4.42962 54.2997 2.52908 54.2997 2.52908C54.2997 2.52908 35.2319 -1.94507 24.1472 12.4081C19.2795 18.711 16.1906 31.515 16.1906 31.515C16.1906 31.515 8.1324 35.6456 9.44419 39.4186C10.8419 43.4398 24.4408 45.4372 28.3309 46.307C38.0225 48.4762 51.2935 38.0053 63.1809 36.5889C71.6294 35.5831 71.9433 31.9101 69.0589 29.424Z" fill="#646CFF"/>
<path d="M32.838 47.7344C31.1936 47.8905 29.5991 47.8343 28.0656 47.4907C27.5065 47.3658 26.7194 47.2128 25.8074 47.0347C17.6665 45.4497 9.60992 43.5866 8.29968 39.8168C6.85515 35.6596 13.1674 31.793 15.146 30.6998C15.7972 28.1621 18.7331 17.4366 23.1885 11.6679C27.9266 5.53211 34.8635 1.80287 43.248 0.881494C49.5368 0.191241 54.3733 1.30158 54.5763 1.34843L54.9308 1.4312L55.1807 1.69668C55.3696 1.89657 56.8626 3.52226 57.3342 5.3291C62.7391 8.17288 66.6776 13.178 68.7468 19.8431C70.0289 23.9753 70.2366 27.5515 70.2663 28.893C71.6687 30.286 72.2106 31.9023 71.7546 33.3952C71.2642 35.0022 69.4027 37.0698 63.3232 37.7929C58.3555 38.3847 53.0209 40.6632 47.8612 42.8667C42.5734 45.1233 37.5011 47.2893 32.838 47.7344ZM43.9945 3.24116C43.8087 3.25834 43.6228 3.27864 43.4339 3.29894C35.6443 4.17347 29.4789 7.48731 25.1063 13.1483C20.4556 19.1701 17.3995 31.6743 17.3682 31.7992L17.2371 32.3395L16.742 32.5925C16.7233 32.6019 14.7931 33.5998 13.0627 35.0131C11.9368 35.9314 10.119 37.6742 10.5875 39.0203C10.7609 39.5185 11.6869 40.8428 16.5437 42.3701C19.8091 43.3976 23.543 44.1238 26.2697 44.6548C27.1989 44.8359 28.0016 44.9921 28.5934 45.1248C33.7141 46.2711 40.1232 43.5335 46.9086 40.6366C52.226 38.366 57.7231 36.0188 63.0358 35.3863C68.4032 34.7461 69.2918 33.1578 69.4355 32.6862C69.6385 32.0241 69.2012 31.148 68.2658 30.3422L67.8332 29.9705L67.8457 29.4005C67.8488 29.1787 67.9847 13.2467 55.7194 7.22807L55.112 6.9298L55.0479 6.25516C54.9698 5.43998 54.2327 4.32183 53.6596 3.6347C52.4993 3.41138 48.6857 2.79453 43.9945 3.24116Z" fill="#0617B7"/>
<path d="M30.93 20.1274L28.2939 18.9483L28.7171 17.8724C28.7781 17.7162 30.2694 13.9963 34.1673 10.0922C37.7467 6.50504 44.137 2.0715 54.2097 1.3219L54.3893 3.73778C47.2025 4.27499 41.1729 6.79395 36.4692 11.2337C40.9574 7.99955 47.5851 4.83251 56.2679 4.92933L56.2414 7.35302C40.3328 7.17655 31.5906 19.1998 31.5047 19.32L30.93 20.1274Z" fill="#0617B7"/>
<path d="M42.3184 38.0176C37.8021 38.4487 32.7345 38.4815 27.6638 37.7584C18.2595 36.4185 15.3204 32.3832 15.2002 32.213L17.1819 30.8168L16.1918 31.5149L17.1741 30.8059C17.1991 30.8403 19.7602 34.1853 28.0058 35.3597C39.1701 36.951 50.261 34.7475 54.9928 32.8767L55.883 35.1301C53.0782 36.2389 48.1606 37.4601 42.3184 38.0176Z" fill="#0617B7"/>
<path d="M64.9269 32.2568L64.1133 29.9736C67.132 28.8992 67.7879 27.0549 67.8144 26.9768L70.1288 27.6952C70.0913 27.8201 69.1652 30.7467 64.9269 32.2568Z" fill="#0617B7"/>
</svg>
