<svg width="80" height="80" viewBox="0 0 80 80" fill="none" xmlns="http://www.w3.org/2000/svg">
<path d="M11.4517 48.9721L11.4283 52.0564L8.091 52.6451L8.03167 61.9635L4.09161 62.6585L4.15096 53.3401L0.849609 53.9226L0.873038 50.8383L11.4517 48.9721Z" fill="white"/>
<path d="M16.8769 51.0944L16.8738 52.6342L20.7779 51.9455L20.7452 54.8736L16.8394 55.5623L16.8363 57.3129L21.2746 56.5305L21.2543 59.6304L12.876 61.1077L12.9587 48.705L21.337 47.2277L21.3136 50.3104L16.8769 51.0944Z" fill="white"/>
<path d="M31.2657 55.9933L27.0758 56.732L26.437 58.7169L22.3018 59.4462L26.9821 46.233L31.5265 45.4318L36.0225 57.0256L31.8685 57.758L31.2657 55.9933ZM30.3225 53.237L29.2183 49.9856L28.0502 53.6383L30.3225 53.237Z" fill="white"/>
<path d="M52.5432 41.726L52.4604 54.1271L48.5375 54.819L48.5781 48.6176L46.6026 55.1594L43.2294 55.7544L41.3398 49.9122L41.2946 56.0964L37.3545 56.7913L37.4373 44.3902L42.2659 43.5391L44.9894 50.4776L47.7333 42.5756L52.5432 41.726Z" fill="white"/>
<path d="M10.7366 64.3263C11.6908 64.6183 12.47 65.129 13.0744 65.8567C13.6788 66.5845 14.0738 67.4793 14.2612 68.5428C14.3393 68.9847 14.3784 69.4845 14.3799 70.0435C14.3674 71.1539 14.1285 72.1783 13.66 73.1184C13.1915 74.0586 12.5153 74.8456 11.633 75.4797C10.7507 76.1137 9.69964 76.5385 8.48155 76.7524C7.25096 76.9695 6.15782 76.9351 5.20521 76.6478C4.25104 76.3604 3.47645 75.856 2.8799 75.133C2.28334 74.4099 1.8898 73.5167 1.7024 72.4532C1.60558 71.8988 1.56186 71.3819 1.57435 70.9009C1.58685 69.7905 1.82889 68.7676 2.3052 67.8322C2.7815 66.8968 3.46238 66.1128 4.35097 65.4772C5.23955 64.8432 6.29367 64.4169 7.51176 64.2029C8.70643 63.9937 9.78244 64.0343 10.7366 64.3263ZM6.11409 68.7286C5.70805 69.2611 5.50192 69.9295 5.49724 70.7353C5.48943 70.9696 5.50973 71.2179 5.55502 71.4771C5.67058 72.133 5.94699 72.6156 6.38581 72.9232C6.82464 73.2309 7.41026 73.3199 8.14424 73.1903C8.87822 73.0606 9.44979 72.7265 9.86207 72.1877C10.2728 71.6489 10.4773 70.9883 10.4742 70.2075C10.4789 69.9623 10.4602 69.7093 10.4133 69.4485C10.2962 68.7817 10.0182 68.296 9.58096 67.9946C9.1437 67.6932 8.56278 67.6058 7.84129 67.7323C7.09638 67.8635 6.52012 68.1961 6.11409 68.7286Z" fill="white"/>
<path d="M25.3001 62.1774C26.1075 62.6365 26.5947 63.3455 26.765 64.3075C26.8134 64.5792 26.8337 64.8322 26.8259 65.0665C26.8149 65.9082 26.5713 66.689 26.095 67.409C25.6187 68.1289 24.9425 68.7051 24.0664 69.1393L26.7759 73.4026L22.4454 74.1662L20.0873 70.1387L20.067 74.5863L16.127 75.2813L16.2097 62.8786L22.0675 61.8463C23.4152 61.609 24.4943 61.7198 25.3001 62.1774ZM20.1076 67.5464L21.6693 67.2715C22.4376 67.1357 22.8218 66.7187 22.8218 66.0191C22.8233 65.9613 22.8171 65.8863 22.8015 65.7958C22.7578 65.5475 22.6437 65.3663 22.4579 65.2523C22.2736 65.1383 22.0206 65.1102 21.7021 65.1664L20.1404 65.4413L20.1076 67.5464Z" fill="white"/>
<path d="M36.5401 69.8108L32.3502 70.5495L31.7114 72.5344L27.5762 73.2636L32.2565 60.0505L36.8009 59.2493L41.2985 70.8431L37.1445 71.5755L36.5401 69.8108ZM35.5953 67.0545L34.4912 63.8031L33.3231 67.4558L35.5953 67.0545Z" fill="white"/>
<path d="M54.6802 68.4834L50.7402 69.1784L46.6049 63.6782L46.569 69.9124L42.6289 70.6073L42.7117 58.2062L46.6517 57.5112L50.7886 63.116L50.8245 56.7757L54.7646 56.0807L54.6802 68.4834Z" fill="white"/>
<path d="M65.8257 54.5691C66.6471 54.7971 67.3061 55.1969 67.8043 55.7684C68.3009 56.34 68.6398 57.0303 68.8194 57.8376L64.6653 58.5701C64.517 58.3514 64.3015 58.1999 64.0173 58.1156C63.7346 58.0313 63.391 58.025 62.9897 58.0953C62.2323 58.2281 61.6435 58.5747 61.2234 59.1323C60.8033 59.6913 60.5879 60.391 60.5769 61.2327C60.5738 61.5606 60.5926 61.837 60.6316 62.0635C60.7487 62.7319 61.0329 63.1941 61.4811 63.4534C61.9293 63.7126 62.5618 63.7704 63.3785 63.6267C64.289 63.4659 65.0261 62.9755 65.5899 62.1525L62.4478 62.7069L62.4743 59.9552L68.8818 58.8246L68.8537 62.7131C67.8293 65.1337 65.8538 66.6017 62.9319 67.117C61.8075 67.3153 60.8049 67.2826 59.9226 67.0186C59.0403 66.7547 58.3203 66.2893 57.7644 65.6241C57.2084 64.9588 56.843 64.1327 56.6696 63.1488C56.5884 62.685 56.5494 62.2259 56.5541 61.7699C56.5635 60.5784 56.829 59.4727 57.3505 58.4529C57.8721 57.4332 58.6186 56.5789 59.5884 55.8887C60.5582 55.1984 61.6888 54.7393 62.9788 54.5129C64.0548 54.3208 65.0042 54.3411 65.8257 54.5691Z" fill="white"/>
<path d="M74.6914 55.6482L74.6883 57.188L78.5924 56.4993L78.5596 59.4274L74.6539 60.1161L74.6508 61.8667L79.089 61.0844L79.0687 64.1842L70.6904 65.6616L70.7732 53.2589L79.1515 51.7816L79.1281 54.8658L74.6914 55.6482Z" fill="white"/>
<path d="M62.9173 31.8751C62.9173 31.8751 63.2687 15.0435 50.1133 8.59074C49.9509 6.88073 48.1581 4.98019 48.1581 4.98019C48.1581 4.98019 29.0902 0.50604 18.0056 14.8592C13.1395 21.1621 10.049 33.9661 10.049 33.9661C10.049 33.9661 1.9908 38.0967 3.30259 41.8697C4.70028 45.891 18.2992 47.8883 22.1893 48.7582C31.8809 50.9273 45.1519 40.4564 57.0393 39.04C65.4879 38.0343 65.8002 34.3612 62.9173 31.8751Z" fill="#FF6D00"/>
<path d="M26.6964 50.1855C25.052 50.3417 23.4575 50.2855 21.924 49.9419C21.3649 49.817 20.5778 49.6639 19.6658 49.4859C11.5249 47.9008 3.46831 46.0378 2.15808 42.2679C0.713549 38.1108 7.02577 34.2441 9.00439 33.151C9.6556 30.6133 12.5915 19.8878 17.0469 14.119C21.785 7.98328 28.7219 4.25404 37.1064 3.33267C43.3952 2.64241 48.2317 3.75275 48.4347 3.7996L48.7892 3.88237L49.0391 4.14785C49.228 4.34774 50.721 5.97343 51.1926 7.78027C56.5975 10.624 60.536 15.6292 62.6052 22.2943C63.8873 26.4265 64.095 30.0027 64.1247 31.3441C65.527 32.7371 66.0689 34.3534 65.6129 35.8464C65.1226 37.4533 63.2611 39.521 57.1815 40.244C52.2139 40.8359 46.8793 43.1143 41.7196 45.3178C36.4318 47.5744 31.3595 49.7405 26.6964 50.1855ZM37.8529 5.69233C37.6671 5.70951 37.4812 5.72981 37.2923 5.75011C29.5027 6.62464 23.3373 9.93848 18.9646 15.5995C14.314 21.6212 11.2579 34.1254 11.2266 34.2504L11.0954 34.7907L10.6004 35.0437C10.5817 35.0531 8.65146 36.051 6.92114 37.4643C5.79519 38.3825 3.97742 40.1253 4.44592 41.4715C4.61926 41.9697 5.54531 43.2939 10.4021 44.8212C13.6675 45.8488 17.4014 46.575 20.1281 47.1059C21.0573 47.2871 21.86 47.4433 22.4518 47.576C27.5725 48.7223 33.9815 45.9847 40.7669 43.0878C46.0844 40.8172 51.5814 38.47 56.8942 37.8375C62.2632 37.1972 63.1502 35.609 63.2939 35.1374C63.4969 34.4753 63.0596 33.5992 62.1242 32.7934L61.6916 32.4217L61.7041 31.8517C61.7072 31.6299 61.8431 15.6979 49.5778 9.67925L48.9703 9.38097L48.9063 8.70633C48.8282 7.89115 48.0912 6.773 47.518 6.08587C46.3577 5.86255 42.5441 5.2457 37.8529 5.69233Z" fill="#CC2B00"/>
<path d="M24.7884 22.5786L22.1523 21.3995L22.5755 20.3235C22.6365 20.1674 24.1279 16.4475 28.0258 12.5433C31.6051 8.95621 37.9954 4.52267 48.0681 3.77307L48.2477 6.18895C41.0609 6.72617 35.0314 9.24512 30.3276 13.6849C34.8158 10.4507 41.4435 7.28368 50.1264 7.3805L50.0998 9.80419C34.1912 9.62773 25.449 21.6509 25.3631 21.7712L24.7884 22.5786Z" fill="#CC2B00"/>
<path d="M36.1768 40.4689C31.6605 40.8999 26.5929 40.9327 21.5222 40.2096C12.1179 38.8697 9.17884 34.8344 9.05859 34.6642L11.0403 33.2681L10.0502 33.9661L11.0325 33.2571C11.0575 33.2915 13.6186 36.6366 21.8642 37.8109C33.0285 39.4023 44.1194 37.1988 48.8512 35.3279L49.7414 37.5814C46.9366 38.6902 42.0189 39.9114 36.1768 40.4689Z" fill="#CC2B00"/>
<path d="M58.7853 34.708L57.9717 32.4249C60.9904 31.3504 61.6463 29.5061 61.6728 29.428L63.9872 30.1464C63.9497 30.2713 63.0236 33.1979 58.7853 34.708Z" fill="#CC2B00"/>
</svg>
