<svg width="328" height="145" viewBox="0 0 328 145" fill="none" xmlns="http://www.w3.org/2000/svg">
<path d="M0.707031 45.81L142.59 21.2011L151.585 24.3149V19.1253L258.172 0L325.896 32.7566L327.705 47.699L282.016 100.083L255.722 105.618L239.116 100.429L235.31 108.386L29.3534 145L14.84 125.688L7.49499 84.4827L10.7679 74.235L4.44352 74.6848L0.707031 45.81Z" fill="black"/>
<path d="M15.9367 66.6666L11.1727 83.4531L18.3101 123.499L29.2877 130.934L230.467 93.8565L234.272 85.8991L254.339 91.4347L272.675 86.2451L317.305 35.3873L255.325 5.11138L155.194 22.7801L155.045 30.5437L141.389 25.2158L5.15625 49.2573L8.29767 67.2098L15.9367 66.6666Z" fill="#FFFF00"/>
<path d="M106.215 48.601L94.7594 102.496L75.1463 105.956L69.2579 77.538L63.4905 108.011L43.8774 111.471L32.3047 61.6337L49.2884 58.6376L53.8795 90.5085L60.657 56.6345L77.8518 53.6003L84.6501 85.0802L89.2239 51.5937L106.215 48.601Z" fill="black"/>
<path d="M143.793 43.9891C147.63 45.2415 150.768 47.4004 153.214 50.4622C155.657 53.5241 157.272 57.2813 158.061 61.734C158.386 63.5814 158.559 65.678 158.583 68.0168C158.57 72.6597 157.639 76.9394 155.791 80.8558C153.94 84.7722 151.256 88.0416 147.737 90.6641C144.219 93.29 140.022 95.0302 135.14 95.8883C130.214 96.7566 125.834 96.5767 122 95.3485C118.167 94.1169 115.043 91.9857 112.628 88.9411C110.21 85.8966 108.608 82.1497 107.826 77.6971C107.418 75.3756 107.227 73.2133 107.266 71.1997C107.279 66.5568 108.22 62.291 110.099 58.3919C111.978 54.4928 114.687 51.2337 118.229 48.6044C121.772 45.9784 125.983 44.2313 130.864 43.3733C135.646 42.5326 139.956 42.7367 143.793 43.9891ZM125.398 62.2529C123.786 64.4671 122.983 67.2591 122.99 70.6289C122.966 71.608 123.052 72.6459 123.246 73.7357C123.73 76.4827 124.855 78.5067 126.626 79.8075C128.394 81.1084 130.747 81.4993 133.684 80.9803C136.621 80.4614 138.908 79.0844 140.538 76.8425C142.171 74.6041 142.966 71.8467 142.928 68.5842C142.942 67.5532 142.852 66.498 142.662 65.4082C142.171 62.6127 141.039 60.575 139.275 59.2983C137.514 58.0217 135.185 57.6377 132.297 58.1462C129.311 58.6721 127.01 60.0422 125.398 62.2529Z" fill="black"/>
<path d="M200.34 35.773C203.589 37.7174 205.568 40.6996 206.28 44.7267C206.481 45.865 206.571 46.9237 206.547 47.9062C206.533 51.4247 205.581 54.6838 203.689 57.6799C201.8 60.676 199.108 63.0667 195.61 64.8553L206.612 82.7732L189.272 85.8316L179.692 68.9101L179.748 87.513L163.971 90.2946L163.913 38.4266L187.366 34.2923C192.767 33.3374 197.091 33.8321 200.34 35.773ZM179.689 58.0639L185.944 56.9603C189.023 56.4171 190.549 54.6838 190.521 51.7569C190.525 51.5112 190.497 51.1999 190.431 50.8193C190.248 49.7779 189.784 49.0168 189.04 48.5359C188.297 48.055 187.283 47.9304 186.006 48.1553L179.751 49.259L179.689 58.0639Z" fill="black"/>
<path d="M242.344 49.8035L260.975 73.1911L242.001 76.5367L227.353 56.6191L227.363 79.1142L211.587 81.8958L211.528 30.0278L227.305 27.2461L227.357 49.1461L242.085 24.641L260.916 21.3197L242.344 49.8035Z" fill="black"/>
</svg>
